<svg width="208" height="60" viewBox="0 0 208 60" fill="none" xmlns="http://www.w3.org/2000/svg">
<path d="M79.1992 45.504V14.4H85.8088V45.504H79.1992Z" fill="black"/>
<path d="M94.7023 45.504V14.4H101.614L119.024 35.136V14.4H125.806V45.504H118.894L101.398 24.6816V45.504H94.7023Z" fill="black"/>
<path d="M142.224 45.504C141.043 45.504 139.963 45.216 138.984 44.64C138.033 44.064 137.27 43.3008 136.694 42.3504C136.118 41.3712 135.83 40.2912 135.83 39.1104V20.7936C135.83 19.6128 136.118 18.5472 136.694 17.5968C137.27 16.6176 138.033 15.84 138.984 15.264C139.963 14.688 141.043 14.4 142.224 14.4H166.848V21.1392H143.952C143.491 21.1392 143.131 21.2544 142.872 21.4848C142.641 21.7152 142.526 22.0752 142.526 22.5648V37.3392C142.526 37.8 142.641 38.16 142.872 38.4192C143.131 38.6496 143.491 38.7648 143.952 38.7648H166.848V45.504H142.224Z" fill="black"/>
<path d="M182.843 45.504C181.691 45.504 180.625 45.216 179.646 44.64C178.667 44.064 177.889 43.2864 177.313 42.3072C176.737 41.328 176.45 40.2624 176.45 39.1104V20.7936C176.45 19.6128 176.737 18.5472 177.313 17.5968C177.889 16.6176 178.667 15.84 179.646 15.264C180.625 14.688 181.691 14.4 182.843 14.4H201.16C202.312 14.4 203.363 14.688 204.314 15.264C205.293 15.84 206.07 16.6176 206.646 17.5968C207.251 18.5472 207.553 19.6128 207.553 20.7936V39.1104C207.553 40.2624 207.251 41.328 206.646 42.3072C206.07 43.2864 205.293 44.064 204.314 44.64C203.363 45.216 202.312 45.504 201.16 45.504H182.843ZM183.145 38.7648H200.771V21.1392H183.145V38.7648Z" fill="black"/>
<path d="M0 9.6C0 4.29807 4.29807 0 9.6 0H50.4C55.7019 0 60 4.29807 60 9.6V50.4C60 55.7019 55.7019 60 50.4 60H9.6C4.29807 60 0 55.7019 0 50.4V9.6Z" fill="black"/>
<path d="M11.3984 41.4L17.4464 18.6H23.9984L17.9504 41.4H11.3984Z" fill="white"/>
<path d="M23.9984 41.4L30.0464 18.6H36.5984L30.5504 41.4H23.9984Z" fill="white"/>
<path d="M36.5984 41.4L42.6464 18.6H49.1984L43.1504 41.4H36.5984Z" fill="white"/>
</svg>
